<svg width="134" height="36" viewBox="0 0 134 36" xmlns="http://www.w3.org/2000/svg"><defs><clipPath id="satori_bc-id"><path x="0" y="0" width="134" height="36" d="M8,0 h118 a8,8 0 0 1 8,8 v20 a8,8 0 0 1 -8,8 h-118 a8,8 0 0 1 -8,-8 v-20 a8,8 0 0 1 8,-8"/></clipPath></defs><mask id="satori_om-id"><rect x="1" y="1" width="132" height="34" fill="#fff"/><path width="134" height="36" fill="none" stroke="#000" stroke-width="2" d="M2.343,2.343 A8,8 0 0 1 8,0 h118 a8,8 0 0 1 8,8 v20 a8,8 0 0 1 -8,8 h-118 a8,8 0 0 1 -8,-8 v-20 A8,8 0 0 1 2.343,2.343"/></mask><path x="0" y="0" width="134" height="36" fill="#0E1525" d="M8,0 h118 a8,8 0 0 1 8,8 v20 a8,8 0 0 1 -8,8 h-118 a8,8 0 0 1 -8,-8 v-20 a8,8 0 0 1 8,-8"/><path width="134" height="36" clip-path="url(#satori_bc-id)" fill="none" stroke="#1C2333" stroke-width="2" d="M2.343,2.343 A8,8 0 0 1 8,0 h118 a8,8 0 0 1 8,8 v20 a8,8 0 0 1 -8,8 h-118 a8,8 0 0 1 -8,-8 v-20 A8,8 0 0 1 2.343,2.343"/><clipPath id="satori_cp-id-0"><rect x="13" y="11" width="13" height="15"/></clipPath><mask id="satori_om-id-0"><rect x="13" y="11" width="13" height="15" fill="#fff"/></mask><image x="13" y="11" width="13" height="15" href="data:image/svg+xml;utf8,%3Csvg  preserveAspectRatio=%22none%22 xmlns=%22http://www.w3.org/2000/svg%22 width=%2213.23529411764706%22 height=%2215%22 viewBox=%220 0 15 17%22%3E%3Cpath d=%22M0 1.0625C0 0.475697 0.50368 0 1.125 0H6.375C6.99632 0 7.5 0.475697 7.5 1.0625V5.66667H1.125C0.50368 5.66667 0 5.19097 0 4.60417V1.0625Z%22 fill=%22%23F26207%22%3E%3C/path%3E%3Cpath d=%22M7.5 5.66667H13.875C14.4963 5.66667 15 6.14236 15 6.72917V10.2708C15 10.8576 14.4963 11.3333 13.875 11.3333H7.5V5.66667Z%22 fill=%22%23F26207%22%3E%3C/path%3E%3Cpath d=%22M0 12.3958C0 11.809 0.50368 11.3333 1.125 11.3333H7.5V15.9375C7.5 16.5243 6.99632 17 6.375 17H1.125C0.50368 17 0 16.5243 0 15.9375V12.3958Z%22 fill=%22%23F26207%22%3E%3C/path%3E%3C/svg%3E" preserveAspectRatio="none" transform="matrix(1.00,0.00,0.00,1.00,0.00,-1.00)" clip-path="url(#satori_cp-id-0)" mask="url(#satori_om-id-0)"/><mask id="satori_om-id-0-0"><rect x="13" y="11" width="0" height="15" fill="#fff"/></mask><mask id="satori_om-id-0-1"><rect x="13" y="11" width="0" height="15" fill="#fff"/></mask><mask id="satori_om-id-0-2"><rect x="13" y="11" width="0" height="15" fill="#fff"/></mask><mask id="satori_om-id-1"><rect x="34" y="9" width="87" height="18" fill="#fff"/></mask><path fill="#F5F9FC" d="M36.8 19.4L36.8 23.3L35.2 23.3L35.2 13.6L39.4 13.6Q40.7 13.6 41.5 14.4Q42.2 15.2 42.2 16.5L42.2 16.5Q42.2 17.6 41.8 18.3Q41.3 19.0 40.3 19.2L40.3 19.2L42.5 23.3L40.7 23.3L38.7 19.4L36.8 19.4ZM36.8 18.1L39.3 18.1Q39.9 18.1 40.2 17.8Q40.6 17.4 40.6 16.9L40.6 16.9L40.6 16.2Q40.6 15.6 40.2 15.3Q39.9 15.0 39.3 15.0L39.3 15.0L36.8 15.0L36.8 18.1ZM48.7 23.3L48.7 22.1L48.6 22.1Q48.5 22.4 48.4 22.7Q48.2 22.9 48.0 23.1Q47.7 23.3 47.4 23.4Q47.0 23.5 46.6 23.5L46.6 23.5Q45.4 23.5 44.8 22.8Q44.2 22.1 44.2 20.7L44.2 20.7L44.2 16.1L45.7 16.1L45.7 20.5Q45.7 22.2 47.1 22.2L47.1 22.2Q47.4 22.2 47.7 22.1Q48.0 22.0 48.2 21.9Q48.4 21.7 48.5 21.5Q48.7 21.3 48.7 20.9L48.7 20.9L48.7 16.1L50.2 16.1L50.2 23.3L48.7 23.3ZM53.9 23.3L52.4 23.3L52.4 16.1L53.9 16.1L53.9 17.3L54.0 17.3Q54.2 16.7 54.7 16.3Q55.2 15.9 56.0 15.9L56.0 15.9Q57.1 15.9 57.8 16.6Q58.4 17.4 58.4 18.7L58.4 18.7L58.4 23.3L56.9 23.3L56.9 18.9Q56.9 17.2 55.5 17.2L55.5 17.2Q55.2 17.2 54.9 17.3Q54.6 17.4 54.4 17.5Q54.2 17.7 54.0 17.9Q53.9 18.2 53.9 18.5L53.9 18.5L53.9 23.3Z M66.7 23.5L66.7 23.5Q65.9 23.5 65.3 23.3Q64.7 23.0 64.2 22.5Q63.8 22.0 63.6 21.3Q63.3 20.6 63.3 19.7L63.3 19.7Q63.3 18.8 63.6 18.1Q63.8 17.4 64.2 16.9Q64.7 16.4 65.3 16.2Q65.9 15.9 66.7 15.9L66.7 15.9Q67.4 15.9 68.0 16.2Q68.7 16.4 69.1 16.9Q69.5 17.4 69.8 18.1Q70.0 18.8 70.0 19.7L70.0 19.7Q70.0 20.6 69.8 21.3Q69.5 22.0 69.1 22.5Q68.7 23.0 68.0 23.3Q67.4 23.5 66.7 23.5ZM66.7 22.3L66.7 22.3Q67.4 22.3 67.9 21.8Q68.4 21.3 68.4 20.3L68.4 20.3L68.4 19.1Q68.4 18.1 67.9 17.6Q67.4 17.2 66.7 17.2L66.7 17.2Q65.9 17.2 65.4 17.6Q64.9 18.1 64.9 19.1L64.9 19.1L64.9 20.3Q64.9 21.3 65.4 21.8Q65.9 22.3 66.7 22.3ZM73.2 23.3L71.7 23.3L71.7 16.1L73.2 16.1L73.2 17.3L73.3 17.3Q73.5 16.7 74.0 16.3Q74.5 15.9 75.3 15.9L75.3 15.9Q76.5 15.9 77.1 16.6Q77.7 17.4 77.7 18.7L77.7 18.7L77.7 23.3L76.2 23.3L76.2 18.9Q76.2 17.2 74.8 17.2L74.8 17.2Q74.5 17.2 74.2 17.3Q73.9 17.4 73.7 17.5Q73.5 17.7 73.4 17.9Q73.2 18.2 73.2 18.5L73.2 18.5L73.2 23.3Z M84.8 19.4L84.8 23.3L83.2 23.3L83.2 13.6L87.5 13.6Q88.8 13.6 89.5 14.4Q90.3 15.2 90.3 16.5L90.3 16.5Q90.3 17.6 89.8 18.3Q89.3 19.0 88.4 19.2L88.4 19.2L90.5 23.3L88.7 23.3L86.8 19.4L84.8 19.4ZM84.8 18.1L87.3 18.1Q87.9 18.1 88.3 17.8Q88.6 17.4 88.6 16.9L88.6 16.9L88.6 16.2Q88.6 15.6 88.3 15.3Q87.9 15.0 87.3 15.0L87.3 15.0L84.8 15.0L84.8 18.1ZM94.9 23.5L94.9 23.5Q94.2 23.5 93.5 23.3Q92.9 23.0 92.5 22.5Q92.1 22.0 91.8 21.3Q91.6 20.6 91.6 19.7L91.6 19.7Q91.6 18.8 91.8 18.1Q92.1 17.4 92.5 16.9Q92.9 16.4 93.5 16.2Q94.2 15.9 94.9 15.9L94.9 15.9Q95.7 15.9 96.3 16.2Q97.0 16.5 97.4 17.0Q97.8 17.5 98.0 18.1Q98.2 18.8 98.2 19.5L98.2 19.5L98.2 20.1L93.2 20.1L93.2 20.3Q93.2 21.2 93.7 21.7Q94.2 22.3 95.1 22.3L95.1 22.3Q95.8 22.3 96.2 22.0Q96.7 21.7 97.0 21.2L97.0 21.2L97.9 22.0Q97.5 22.7 96.7 23.1Q96.0 23.5 94.9 23.5ZM94.9 17.1L94.9 17.1Q94.5 17.1 94.2 17.2Q93.9 17.4 93.7 17.6Q93.4 17.9 93.3 18.2Q93.2 18.6 93.2 19.0L93.2 19.0L93.2 19.1L96.6 19.1L96.6 19.0Q96.6 18.1 96.1 17.6Q95.7 17.1 94.9 17.1ZM99.9 26.1L99.9 16.1L101.4 16.1L101.4 17.3L101.5 17.3Q101.7 16.6 102.2 16.3Q102.8 15.9 103.5 15.9L103.5 15.9Q104.9 15.9 105.7 16.9Q106.4 17.9 106.4 19.7L106.4 19.7Q106.4 21.5 105.7 22.5Q104.9 23.5 103.5 23.5L103.5 23.5Q102.8 23.5 102.2 23.2Q101.7 22.8 101.5 22.1L101.5 22.1L101.4 22.1L101.4 26.1L99.9 26.1ZM103.0 22.2L103.0 22.2Q103.8 22.2 104.3 21.7Q104.8 21.2 104.8 20.3L104.8 20.3L104.8 19.1Q104.8 18.2 104.3 17.7Q103.8 17.2 103.0 17.2L103.0 17.2Q102.3 17.2 101.9 17.6Q101.4 17.9 101.4 18.5L101.4 18.5L101.4 21.0Q101.4 21.5 101.9 21.9Q102.3 22.2 103.0 22.2ZM110.7 23.3L109.7 23.3Q108.9 23.3 108.5 23.0Q108.2 22.6 108.2 21.8L108.2 21.8L108.2 13.0L109.7 13.0L109.7 22.1L110.7 22.1L110.7 23.3ZM112.9 14.8L112.9 14.8Q112.4 14.8 112.2 14.5Q112.0 14.3 112.0 14.0L112.0 14.0L112.0 13.7Q112.0 13.4 112.2 13.2Q112.4 12.9 112.9 12.9L112.9 12.9Q113.4 12.9 113.6 13.2Q113.8 13.4 113.8 13.7L113.8 13.7L113.8 14.0Q113.8 14.3 113.6 14.5Q113.4 14.8 112.9 14.8ZM112.1 23.3L112.1 16.1L113.7 16.1L113.7 23.3L112.1 23.3ZM119.2 23.3L117.9 23.3Q117.1 23.3 116.7 22.9Q116.3 22.5 116.3 21.8L116.3 21.8L116.3 17.3L115.1 17.3L115.1 16.1L115.7 16.1Q116.1 16.1 116.3 15.9Q116.4 15.7 116.4 15.4L116.4 15.4L116.4 14.1L117.8 14.1L117.8 16.1L119.3 16.1L119.3 17.3L117.8 17.3L117.8 22.1L119.2 22.1L119.2 23.3Z " transform="matrix(1.00,0.00,0.00,1.00,0.00,-1.00)"/></svg>